<svg width="24" height="24" viewBox="0 0 24 24" fill="none" xmlns="http://www.w3.org/2000/svg">
<path d="M12.9 7.4999L11.896 5.49193C11.6071 4.91403 11.4626 4.62506 11.247 4.41395C11.0564 4.22726 10.8267 4.08528 10.5745 3.99828C10.2892 3.8999 9.96619 3.8999 9.32006 3.8999H5.88C4.87191 3.8999 4.36786 3.8999 3.98282 4.09609C3.64413 4.26866 3.36876 4.54403 3.19619 4.88272C3 5.26776 3 5.77181 3 6.7799V7.4999M3 7.4999H16.68C18.1921 7.4999 18.9482 7.4999 19.5258 7.79419C20.0338 8.05304 20.4469 8.46609 20.7057 8.97413C21 9.55169 21 10.3078 21 11.8199V15.7799C21 17.292 21 18.0481 20.7057 18.6257C20.4469 19.1337 20.0338 19.5468 19.5258 19.8056C18.9482 20.0999 18.1921 20.0999 16.68 20.0999H7.32C5.80786 20.0999 5.05179 20.0999 4.47423 19.8056C3.96619 19.5468 3.55314 19.1337 3.29428 18.6257C3 18.0481 3 17.292 3 15.7799V7.4999ZM12 16.4999L14.7 13.7999M14.7 13.7999L12 11.0999M14.7 13.7999H9.3" stroke="#464950" stroke-linecap="round" stroke-linejoin="round"/>
</svg>
