<svg width="24" height="24" viewBox="0 0 24 24" fill="none" xmlns="http://www.w3.org/2000/svg">
<path d="M5.04488 19.855L10.9818 13.9181C11.3382 13.5617 11.5164 13.3835 11.7219 13.3167C11.9026 13.258 12.0974 13.258 12.2781 13.3167C12.4836 13.3835 12.6618 13.5617 13.0182 13.9181L18.9155 19.8154M13.8 14.6999L16.3818 12.1181C16.7382 11.7617 16.9164 11.5835 17.1219 11.5167C17.3026 11.458 17.4974 11.458 17.6781 11.5167C17.8836 11.5835 18.0618 11.7617 18.4182 12.1181L21 14.6999M10.2 9.2999C10.2 10.294 9.39411 11.0999 8.4 11.0999C7.40589 11.0999 6.6 10.294 6.6 9.2999C6.6 8.30579 7.40589 7.4999 8.4 7.4999C9.39411 7.4999 10.2 8.30579 10.2 9.2999ZM7.32 20.0999H16.68C18.1921 20.0999 18.9482 20.0999 19.5258 19.8056C20.0338 19.5468 20.4469 19.1337 20.7057 18.6257C21 18.0481 21 17.292 21 15.7799V8.2199C21 6.70776 21 5.95169 20.7057 5.37413C20.4469 4.86609 20.0338 4.45304 19.5258 4.19418C18.9482 3.8999 18.1921 3.8999 16.68 3.8999H7.32C5.80786 3.8999 5.05179 3.8999 4.47423 4.19418C3.96619 4.45304 3.55314 4.86609 3.29428 5.37413C3 5.95169 3 6.70776 3 8.2199V15.7799C3 17.292 3 18.0481 3.29428 18.6257C3.55314 19.1337 3.96619 19.5468 4.47423 19.8056C5.05179 20.0999 5.80786 20.0999 7.32 20.0999Z" stroke="#464950" stroke-linecap="round" stroke-linejoin="round"/>
</svg>
