<svg width="28" height="28" viewBox="0 0 28 28" fill="none" xmlns="http://www.w3.org/2000/svg">
<path d="M7.58333 7.58333H7.595M20.4167 7.58333H20.4283M7.58333 20.4167H7.595M15.1667 15.1667H15.1783M20.4167 20.4167H20.4283M19.8333 24.5H24.5V19.8333M16.3333 19.25V24.5M24.5 16.3333H19.25M18.2 11.6667H22.6333C23.2867 11.6667 23.6134 11.6667 23.863 11.5395C24.0825 11.4277 24.261 11.2492 24.3728 11.0297C24.5 10.7801 24.5 10.4534 24.5 9.8V5.36667C24.5 4.71327 24.5 4.38657 24.3728 4.13701C24.261 3.91749 24.0825 3.73901 23.863 3.62716C23.6134 3.5 23.2867 3.5 22.6333 3.5H18.2C17.5466 3.5 17.2199 3.5 16.9703 3.62716C16.7508 3.73901 16.5723 3.91749 16.4605 4.13701C16.3333 4.38657 16.3333 4.71327 16.3333 5.36667V9.8C16.3333 10.4534 16.3333 10.7801 16.4605 11.0297C16.5723 11.2492 16.7508 11.4277 16.9703 11.5395C17.2199 11.6667 17.5466 11.6667 18.2 11.6667ZM5.36667 11.6667H9.8C10.4534 11.6667 10.7801 11.6667 11.0297 11.5395C11.2492 11.4277 11.4277 11.2492 11.5395 11.0297C11.6667 10.7801 11.6667 10.4534 11.6667 9.8V5.36667C11.6667 4.71327 11.6667 4.38657 11.5395 4.13701C11.4277 3.91749 11.2492 3.73901 11.0297 3.62716C10.7801 3.5 10.4534 3.5 9.8 3.5H5.36667C4.71327 3.5 4.38657 3.5 4.13701 3.62716C3.91749 3.73901 3.73901 3.91749 3.62716 4.13701C3.5 4.38657 3.5 4.71327 3.5 5.36667V9.8C3.5 10.4534 3.5 10.7801 3.62716 11.0297C3.73901 11.2492 3.91749 11.4277 4.13701 11.5395C4.38657 11.6667 4.71327 11.6667 5.36667 11.6667ZM5.36667 24.5H9.8C10.4534 24.5 10.7801 24.5 11.0297 24.3728C11.2492 24.261 11.4277 24.0825 11.5395 23.863C11.6667 23.6134 11.6667 23.2867 11.6667 22.6333V18.2C11.6667 17.5466 11.6667 17.2199 11.5395 16.9703C11.4277 16.7508 11.2492 16.5723 11.0297 16.4605C10.7801 16.3333 10.4534 16.3333 9.8 16.3333H5.36667C4.71327 16.3333 4.38657 16.3333 4.13701 16.4605C3.91749 16.5723 3.73901 16.7508 3.62716 16.9703C3.5 17.2199 3.5 17.5466 3.5 18.2V22.6333C3.5 23.2867 3.5 23.6134 3.62716 23.863C3.73901 24.0825 3.91749 24.261 4.13701 24.3728C4.38657 24.5 4.71327 24.5 5.36667 24.5Z" stroke="#191919" stroke-width="1.5" stroke-linecap="round" stroke-linejoin="round"/>
</svg>
