<svg width="48" height="48" viewBox="0 0 48 48" fill="none" xmlns="http://www.w3.org/2000/svg">
<path d="M24.0002 30C17.66 30 12.0218 33.0613 8.43218 37.8119C7.6596 38.8344 7.27331 39.3456 7.28594 40.0366C7.29571 40.5704 7.63091 41.2438 8.05092 41.5734C8.59456 42 9.34793 42 10.8547 42H37.1457C38.6525 42 39.4058 42 39.9495 41.5734C40.3695 41.2438 40.7047 40.5704 40.7144 40.0366C40.7271 39.3456 40.3408 38.8344 39.5682 37.8119C35.9786 33.0613 30.3403 30 24.0002 30Z" fill="#C1F7D9"/>
<path d="M24.0002 24C28.9708 24 33.0002 19.9706 33.0002 15C33.0002 10.0294 28.9708 6 24.0002 6C19.0296 6 15.0002 10.0294 15.0002 15C15.0002 19.9706 19.0296 24 24.0002 24Z" fill="#C1F7D9"/>
<path d="M24.0002 30C17.66 30 12.0218 33.0613 8.43218 37.8119C7.6596 38.8344 7.27331 39.3456 7.28594 40.0366C7.29571 40.5704 7.63091 41.2438 8.05092 41.5734C8.59456 42 9.34793 42 10.8547 42H37.1457C38.6525 42 39.4058 42 39.9495 41.5734C40.3695 41.2438 40.7047 40.5704 40.7144 40.0366C40.7271 39.3456 40.3408 38.8344 39.5682 37.8119C35.9786 33.0613 30.3403 30 24.0002 30Z" stroke="#C1F7D9" stroke-width="2" stroke-linecap="round" stroke-linejoin="round"/>
<path d="M24.0002 24C28.9708 24 33.0002 19.9706 33.0002 15C33.0002 10.0294 28.9708 6 24.0002 6C19.0296 6 15.0002 10.0294 15.0002 15C15.0002 19.9706 19.0296 24 24.0002 24Z" stroke="#C1F7D9" stroke-width="2" stroke-linecap="round" stroke-linejoin="round"/>
</svg>
