<svg width="19" height="19" viewBox="0 0 19 19" fill="none" xmlns="http://www.w3.org/2000/svg">
<path d="M18.5 9.5C18.5 14.4706 14.4706 18.5 9.5 18.5C8.30286 18.5 7.1603 18.2663 6.11549 17.8419C5.91552 17.7607 5.81554 17.7201 5.73472 17.702C5.65566 17.6843 5.59715 17.6778 5.51613 17.6778C5.4333 17.6778 5.34309 17.6928 5.16265 17.7229L1.60476 18.3159C1.23218 18.378 1.04589 18.409 0.911184 18.3512C0.793283 18.3007 0.69933 18.2067 0.64876 18.0888C0.590982 17.9541 0.62203 17.7678 0.684127 17.3952L1.27711 13.8374C1.30718 13.6569 1.32222 13.5667 1.32221 13.4839C1.3222 13.4028 1.31572 13.3443 1.298 13.2653C1.27988 13.1845 1.23927 13.0845 1.15806 12.8845C0.733736 11.8397 0.5 10.6971 0.5 9.5C0.5 4.52944 4.52944 0.5 9.5 0.5C14.4706 0.5 18.5 4.52944 18.5 9.5Z" fill="#464950" stroke="#464950" stroke-linecap="round" stroke-linejoin="round"/>
</svg>
