<svg width="20" height="20" viewBox="0 0 20 20" fill="none" xmlns="http://www.w3.org/2000/svg">
<path d="M18.75 9.75C18.75 14.7206 14.7206 18.75 9.75 18.75C8.55286 18.75 7.4103 18.5163 6.36549 18.0919C6.16552 18.0107 6.06554 17.9701 5.98472 17.952C5.90566 17.9343 5.84715 17.9278 5.76613 17.9278C5.6833 17.9278 5.59309 17.9428 5.41265 17.9729L1.85476 18.5659C1.48218 18.628 1.29589 18.659 1.16118 18.6012C1.04328 18.5507 0.94933 18.4567 0.89876 18.3388C0.840982 18.2041 0.87203 18.0178 0.934127 17.6452L1.52711 14.0874C1.55718 13.9069 1.57222 13.8167 1.57221 13.7339C1.5722 13.6528 1.56572 13.5943 1.548 13.5153C1.52988 13.4345 1.48927 13.3345 1.40806 13.1345C0.983736 12.0897 0.75 10.9471 0.75 9.75C0.75 4.77944 4.77944 0.75 9.75 0.75C14.7206 0.75 18.75 4.77944 18.75 9.75Z" stroke="#B4B9C2" stroke-width="1.5" stroke-linecap="round" stroke-linejoin="round"/>
</svg>
