<svg width="24" height="24" viewBox="0 0 24 24" fill="none" xmlns="http://www.w3.org/2000/svg">
<path d="M19.6136 6.62357C18.1267 4.24544 15.4847 2.66357 12.4733 2.66357C7.82578 2.66357 4.05825 6.4311 4.05825 11.0786C4.05825 12.0191 4.21254 12.9235 4.49719 13.768C4.60431 14.0858 4.65786 14.2447 4.66753 14.3668C4.67707 14.4873 4.66985 14.5719 4.64003 14.6891C4.60983 14.8077 4.54315 14.9311 4.40979 15.178L2.79049 18.1752C2.55952 18.6028 2.44403 18.8165 2.46987 18.9815C2.49239 19.1252 2.57696 19.2517 2.70113 19.3275C2.8437 19.4145 3.08538 19.3895 3.56874 19.3395L8.63855 18.8154C8.79208 18.7996 8.86884 18.7916 8.93881 18.7943C9.00763 18.7969 9.05621 18.8034 9.12332 18.8189C9.19155 18.8346 9.27735 18.8677 9.44896 18.9338C10.3875 19.2954 11.4072 19.4936 12.4733 19.4936C15.0549 19.4936 17.365 18.331 18.9086 16.5009" stroke="#464950" stroke-width="1.35" stroke-linecap="round" stroke-linejoin="round"/>
<path d="M20.145 8.23022C20.4557 8.23022 20.7075 8.48206 20.7075 8.79272V10.9802H22.895C23.2057 10.9802 23.4575 11.2321 23.4575 11.5427C23.4573 11.8532 23.2055 12.1052 22.895 12.1052H20.7075V14.2927C20.7073 14.6032 20.4555 14.8552 20.145 14.8552C19.8346 14.8551 19.5828 14.6031 19.5825 14.2927V12.1052H17.395C17.0846 12.1051 16.8328 11.8531 16.8325 11.5427C16.8325 11.2322 17.0845 10.9804 17.395 10.9802H19.5825V8.79272C19.5825 8.48216 19.8345 8.23038 20.145 8.23022Z" fill="#464950"/>
</svg>
