<svg width="18" height="18" viewBox="0 0 18 18" fill="none" xmlns="http://www.w3.org/2000/svg">
<path d="M9.09473 12.75V16.5M6.14953 6.9811V8.57906C6.14953 8.73508 6.14953 8.81308 6.1345 8.8877C6.12116 8.95389 6.0991 9.01795 6.06892 9.07813C6.0349 9.14596 5.98706 9.20687 5.89138 9.3287L4.73555 10.8004C4.24537 11.4245 4.00028 11.7366 4 11.9992C3.99976 12.2276 4.10171 12.4437 4.27696 12.5862C4.47847 12.75 4.8708 12.75 5.65548 12.75H12.534C13.3187 12.75 13.711 12.75 13.9125 12.5862C14.0877 12.4437 14.1897 12.2276 14.1895 11.9992C14.1892 11.7366 13.9441 11.4245 13.4539 10.8004L12.2981 9.3287C12.2024 9.20687 12.1546 9.14596 12.1205 9.07813C12.0904 9.01795 12.0683 8.95389 12.055 8.8877C12.0399 8.81308 12.0399 8.73508 12.0399 8.57906V6.9811C12.0399 6.89475 12.0399 6.85158 12.0447 6.80901C12.049 6.77119 12.056 6.73375 12.0659 6.69702C12.077 6.65568 12.0927 6.6156 12.1242 6.53543L12.8663 4.64567C13.0828 4.09435 13.191 3.8187 13.1459 3.59741C13.1064 3.4039 12.9935 3.23408 12.8318 3.12488C12.6469 3 12.3554 3 11.7725 3H6.41699C5.83406 3 5.54259 3 5.35765 3.12488C5.19592 3.23408 5.08305 3.4039 5.04357 3.59741C4.99843 3.8187 5.10668 4.09435 5.32318 4.64567L6.06527 6.53543C6.09675 6.6156 6.11249 6.65568 6.12357 6.69702C6.13341 6.73375 6.14048 6.77119 6.14474 6.80901C6.14953 6.85158 6.14953 6.89476 6.14953 6.9811Z" stroke="#CCD2D9" stroke-linecap="round" stroke-linejoin="round"/>
<path d="M14.0034 12.5H4.18604V12L6.1495 9V7L5.16777 3.5H13.0216L12.0399 6.5V9L14.0034 11.5V12.5Z" fill="#CCD2D9"/>
</svg>
