<svg width="24" height="24" viewBox="0 0 24 24" fill="none" xmlns="http://www.w3.org/2000/svg">
<path d="M12 1.5C17.799 1.5 22.5 6.20101 22.5 12C22.5 17.799 17.799 22.5 12 22.5C6.20101 22.5 1.5 17.799 1.5 12C1.5 6.20101 6.20101 1.5 12 1.5Z" fill="#464950" stroke="#464950" stroke-linecap="round" stroke-linejoin="round"/>
<path d="M4.5 20C5.10833 18.5668 7.34491 17 8.99999 17H15C16.6551 17 18.8917 18.5668 19.5 20M16 9.5C16 11.7091 14.2091 13.5 12 13.5C9.79085 13.5 7.99999 11.7091 7.99999 9.5C7.99999 7.29086 9.79085 5.5 12 5.5C14.2091 5.5 16 7.29086 16 9.5Z" stroke="white" stroke-width="1.5" stroke-linecap="square" stroke-linejoin="round"/>
</svg>
