<svg width="36" height="36" viewBox="0 0 36 36" fill="none" xmlns="http://www.w3.org/2000/svg">
<path d="M18 22C13.8275 22 10.1169 24.0408 7.75454 27.208C7.2461 27.8896 6.99188 28.2304 7.0002 28.691C7.00662 29.0469 7.22722 29.4959 7.50364 29.7156C7.86141 30 8.35721 30 9.3488 30H26.6512C27.6428 30 28.1386 30 28.4964 29.7156C28.7728 29.4959 28.9934 29.0469 28.9998 28.691C29.0081 28.2304 28.7539 27.8896 28.2455 27.208C25.8831 24.0408 22.1725 22 18 22Z" fill="#C1F7D9"/>
<path d="M18 18C21.2712 18 23.923 15.3137 23.923 12C23.923 8.68629 21.2712 6 18 6C14.7288 6 12.077 8.68629 12.077 12C12.077 15.3137 14.7288 18 18 18Z" fill="#C1F7D9"/>
<path d="M18 22C13.8275 22 10.1169 24.0408 7.75454 27.208C7.2461 27.8896 6.99188 28.2304 7.0002 28.691C7.00662 29.0469 7.22722 29.4959 7.50364 29.7156C7.86141 30 8.35721 30 9.3488 30H26.6512C27.6428 30 28.1386 30 28.4964 29.7156C28.7728 29.4959 28.9934 29.0469 28.9998 28.691C29.0081 28.2304 28.7539 27.8896 28.2455 27.208C25.8831 24.0408 22.1725 22 18 22Z" stroke="#C1F7D9" stroke-width="1.5" stroke-linecap="round" stroke-linejoin="round"/>
<path d="M18 18C21.2712 18 23.923 15.3137 23.923 12C23.923 8.68629 21.2712 6 18 6C14.7288 6 12.077 8.68629 12.077 12C12.077 15.3137 14.7288 18 18 18Z" stroke="#C1F7D9" stroke-width="1.5" stroke-linecap="round" stroke-linejoin="round"/>
</svg>
