<svg width="24" height="24" viewBox="0 0 24 24" fill="none" xmlns="http://www.w3.org/2000/svg">
<g clip-path="url(#clip0_591_499)">
<path d="M16.7472 14.25C17.6685 14.25 18.3973 14.2499 18.9865 14.29C19.5822 14.3307 20.0906 14.4151 20.5646 14.6113C21.7284 15.0935 22.6538 16.0188 23.1359 17.1826C23.3935 17.8048 23.4621 18.4963 23.4855 19.3799C23.4924 19.6395 23.4996 19.8816 23.4875 20.085C23.4747 20.2999 23.4377 20.5327 23.3244 20.7656C23.1616 21.1002 22.8879 21.3811 22.5578 21.5527C22.3253 21.6735 22.0894 21.7153 21.8732 21.7334C21.6665 21.7507 21.4174 21.75 21.1476 21.75H9.34684C9.07708 21.75 8.82802 21.7507 8.62126 21.7334C8.4051 21.7153 8.16919 21.6735 7.93669 21.5527C7.60648 21.3812 7.33294 21.1002 7.17009 20.7656C7.05676 20.5326 7.0198 20.2999 7.007 20.085C6.99492 19.8816 7.00209 19.6395 7.00895 19.3799C7.03234 18.4962 7.10091 17.8049 7.35856 17.1826C7.84067 16.0188 8.766 15.0934 9.92985 14.6113C10.4038 14.4151 10.9122 14.3307 11.508 14.29C12.0971 14.2499 12.826 14.25 13.7472 14.25H16.7472ZM13.7472 15.75C12.8053 15.75 12.1359 15.7502 11.6095 15.7861C11.0901 15.8216 10.764 15.8891 10.5031 15.9971C9.70698 16.3269 9.07417 16.9598 8.74431 17.7559C8.59917 18.1062 8.53169 18.5605 8.50895 19.4199C8.5014 19.7053 8.49767 19.872 8.50505 19.9961C8.50928 20.0671 8.51582 20.0989 8.51872 20.1094C8.54062 20.1543 8.58376 20.1986 8.62809 20.2217C8.61245 20.2136 8.62651 20.2282 8.74626 20.2383C8.87613 20.2491 9.05197 20.25 9.34684 20.25H21.1476C21.4425 20.25 21.6184 20.2491 21.7482 20.2383C21.8672 20.2283 21.8817 20.2139 21.8664 20.2217C21.9107 20.1985 21.9539 20.1543 21.9758 20.1094C21.9693 20.1226 21.9827 20.1086 21.9894 19.9961C21.9968 19.872 21.9931 19.7052 21.9855 19.4199C21.9628 18.5606 21.8953 18.1062 21.7502 17.7559C21.4203 16.9598 20.7874 16.3269 19.9914 15.9971C19.7305 15.889 19.4044 15.8216 18.8849 15.7861C18.3586 15.7502 17.6892 15.75 16.7472 15.75H13.7472ZM15.2472 2.25C17.8705 2.25015 19.9972 4.37674 19.9972 7C19.9972 9.62326 17.8705 11.7499 15.2472 11.75C12.6239 11.75 10.4972 9.62335 10.4972 7C10.4972 4.37665 12.6239 2.25 15.2472 2.25Z" fill="#464950"/>
<path d="M22.7466 20.5L8.24658 21L7.74658 19.1825L9.74658 15.5L15.7466 15L21.2466 16L22.7466 20.5Z" fill="#464950"/>
<mask id="path-3-outside-1_591_499" maskUnits="userSpaceOnUse" x="-0.746582" y="0.25" width="21" height="24" fill="black">
<rect fill="white" x="-0.746582" y="0.25" width="21" height="24"/>
<path d="M11.0002 14.25C11.9215 14.25 12.6502 14.2499 13.2394 14.29C13.8353 14.3307 14.3435 14.4151 14.8175 14.6113C15.9814 15.0934 16.9067 16.0187 17.3888 17.1826C17.6465 17.8049 17.7151 18.4962 17.7384 19.3799C17.7453 19.6395 17.7525 19.8816 17.7404 20.085C17.7276 20.2999 17.6906 20.5326 17.5773 20.7656C17.4145 21.1003 17.141 21.3811 16.8107 21.5527C16.5782 21.6736 16.3424 21.7153 16.1261 21.7334C15.9193 21.7507 15.6704 21.75 15.4006 21.75H3.59977C3.32992 21.75 3.08099 21.7507 2.87419 21.7334C2.65797 21.7153 2.42217 21.6736 2.18962 21.5527C1.85939 21.3811 1.58585 21.1003 1.42302 20.7656C1.30969 20.5326 1.27273 20.2999 1.25993 20.085C1.24785 19.8816 1.25501 19.6395 1.26188 19.3799C1.28527 18.4963 1.35385 17.8049 1.61149 17.1826C2.09358 16.0187 3.01892 15.0934 4.18278 14.6113C4.65681 14.415 5.16508 14.3307 5.76091 14.29C6.3501 14.2499 7.07878 14.25 8.00016 14.25H11.0002ZM8.00016 15.75C7.05805 15.75 6.38884 15.7502 5.86247 15.7861C5.34293 15.8216 5.01692 15.889 4.75602 15.9971C3.9599 16.3269 3.32708 16.9597 2.99724 17.7559C2.85211 18.1062 2.78462 18.5605 2.76188 19.4199C2.75433 19.7053 2.7506 19.872 2.75798 19.9961C2.76468 20.1086 2.77809 20.1226 2.77165 20.1094C2.79352 20.1543 2.83667 20.1986 2.88102 20.2217C2.86545 20.2137 2.8796 20.2283 2.99919 20.2383C3.12908 20.2491 3.30473 20.25 3.59977 20.25H15.4006C15.6956 20.25 15.8712 20.2491 16.0011 20.2383C16.1209 20.2282 16.135 20.2136 16.1193 20.2217C16.1637 20.1986 16.2068 20.1543 16.2287 20.1094C16.2223 20.1226 16.2357 20.1085 16.2424 19.9961C16.2497 19.872 16.246 19.7053 16.2384 19.4199C16.2157 18.5605 16.1482 18.1062 16.0031 17.7559C15.6732 16.9597 15.0404 16.3269 14.2443 15.9971C13.9834 15.889 13.6574 15.8216 13.1379 15.7861C12.6115 15.7502 11.9423 15.75 11.0002 15.75H8.00016ZM9.50016 2.25C12.1235 2.25 14.2502 4.37665 14.2502 7C14.2502 9.62335 12.1235 11.75 9.50016 11.75C6.87684 11.75 4.75016 9.62333 4.75016 7C4.75016 4.37667 6.87684 2.25003 9.50016 2.25Z"/>
</mask>
<path d="M11.0002 14.25C11.9215 14.25 12.6502 14.2499 13.2394 14.29C13.8353 14.3307 14.3435 14.4151 14.8175 14.6113C15.9814 15.0934 16.9067 16.0187 17.3888 17.1826C17.6465 17.8049 17.7151 18.4962 17.7384 19.3799C17.7453 19.6395 17.7525 19.8816 17.7404 20.085C17.7276 20.2999 17.6906 20.5326 17.5773 20.7656C17.4145 21.1003 17.141 21.3811 16.8107 21.5527C16.5782 21.6736 16.3424 21.7153 16.1261 21.7334C15.9193 21.7507 15.6704 21.75 15.4006 21.75H3.59977C3.32992 21.75 3.08099 21.7507 2.87419 21.7334C2.65797 21.7153 2.42217 21.6736 2.18962 21.5527C1.85939 21.3811 1.58585 21.1003 1.42302 20.7656C1.30969 20.5326 1.27273 20.2999 1.25993 20.085C1.24785 19.8816 1.25501 19.6395 1.26188 19.3799C1.28527 18.4963 1.35385 17.8049 1.61149 17.1826C2.09358 16.0187 3.01892 15.0934 4.18278 14.6113C4.65681 14.415 5.16508 14.3307 5.76091 14.29C6.3501 14.2499 7.07878 14.25 8.00016 14.25H11.0002ZM8.00016 15.75C7.05805 15.75 6.38884 15.7502 5.86247 15.7861C5.34293 15.8216 5.01692 15.889 4.75602 15.9971C3.9599 16.3269 3.32708 16.9597 2.99724 17.7559C2.85211 18.1062 2.78462 18.5605 2.76188 19.4199C2.75433 19.7053 2.7506 19.872 2.75798 19.9961C2.76468 20.1086 2.77809 20.1226 2.77165 20.1094C2.79352 20.1543 2.83667 20.1986 2.88102 20.2217C2.86545 20.2137 2.8796 20.2283 2.99919 20.2383C3.12908 20.2491 3.30473 20.25 3.59977 20.25H15.4006C15.6956 20.25 15.8712 20.2491 16.0011 20.2383C16.1209 20.2282 16.135 20.2136 16.1193 20.2217C16.1637 20.1986 16.2068 20.1543 16.2287 20.1094C16.2223 20.1226 16.2357 20.1085 16.2424 19.9961C16.2497 19.872 16.246 19.7053 16.2384 19.4199C16.2157 18.5605 16.1482 18.1062 16.0031 17.7559C15.6732 16.9597 15.0404 16.3269 14.2443 15.9971C13.9834 15.889 13.6574 15.8216 13.1379 15.7861C12.6115 15.7502 11.9423 15.75 11.0002 15.75H8.00016ZM9.50016 2.25C12.1235 2.25 14.2502 4.37665 14.2502 7C14.2502 9.62335 12.1235 11.75 9.50016 11.75C6.87684 11.75 4.75016 9.62333 4.75016 7C4.75016 4.37667 6.87684 2.25003 9.50016 2.25Z" fill="#464950"/>
<path d="M13.2394 14.29L13.3756 12.2947L13.3755 12.2947L13.2394 14.29ZM14.8175 14.6113L15.5829 12.7636L15.5827 12.7635L14.8175 14.6113ZM17.3888 17.1826L19.2367 16.4175L19.2366 16.4172L17.3888 17.1826ZM17.7384 19.3799L19.7377 19.327V19.327L17.7384 19.3799ZM17.7404 20.085L19.7369 20.2038L19.7369 20.2036L17.7404 20.085ZM17.5773 20.7656L19.3757 21.6408L19.3758 21.6405L17.5773 20.7656ZM16.8107 21.5527L17.7327 23.3275L17.7329 23.3275L16.8107 21.5527ZM16.1261 21.7334L16.2927 23.7265L16.293 23.7264L16.1261 21.7334ZM15.4006 21.75L15.4006 19.75H15.4006V21.75ZM3.59977 21.75V19.75H3.59977L3.59977 21.75ZM2.87419 21.7334L2.70733 23.7264L2.70761 23.7264L2.87419 21.7334ZM2.18962 21.5527L1.26741 23.3274L1.26753 23.3275L2.18962 21.5527ZM1.42302 20.7656L-0.375517 21.6404L-0.375368 21.6407L1.42302 20.7656ZM1.25993 20.085L-0.73655 20.2036L-0.736535 20.2038L1.25993 20.085ZM1.26188 19.3799L-0.737416 19.327L-0.737417 19.327L1.26188 19.3799ZM1.61149 17.1826L-0.236266 16.4173L-0.236368 16.4175L1.61149 17.1826ZM4.18278 14.6113L3.41765 12.7635L3.4174 12.7636L4.18278 14.6113ZM5.76091 14.29L5.62484 12.2947L5.62475 12.2947L5.76091 14.29ZM8.00016 14.25V16.25V14.25ZM8.00016 15.75V13.75V15.75ZM5.86247 15.7861L5.72633 13.7908L5.72629 13.7908L5.86247 15.7861ZM4.75602 15.9971L3.99066 14.1493L3.99048 14.1494L4.75602 15.9971ZM2.99724 17.7559L1.14954 16.9903L1.14947 16.9905L2.99724 17.7559ZM2.76188 19.4199L0.762583 19.367L0.762583 19.367L2.76188 19.4199ZM2.75798 19.9961L0.761508 20.1149L0.761512 20.1149L2.75798 19.9961ZM2.77165 20.1094L4.57001 19.2342C4.08681 18.2413 2.89035 17.8279 1.89723 18.3107C0.904116 18.7934 0.490192 19.9897 0.972569 20.983L2.77165 20.1094ZM2.88102 20.2217L1.96521 21.9997C2.9455 22.5046 4.14952 22.1208 4.65681 21.1418C5.1641 20.1627 4.78324 18.9578 3.8054 18.4481L2.88102 20.2217ZM2.99919 20.2383L2.83212 22.2313L2.8326 22.2313L2.99919 20.2383ZM3.59977 20.25L3.59977 22.25H3.59977V20.25ZM15.4006 20.25V22.25H15.4006L15.4006 20.25ZM16.0011 20.2383L16.1677 22.2313L16.1681 22.2313L16.0011 20.2383ZM16.1193 20.2217L15.1954 18.4479C14.2171 18.9575 13.8361 20.1629 14.3437 21.1422C14.8514 22.1214 16.056 22.5048 17.0363 21.9991L16.1193 20.2217ZM16.2287 20.1094L18.0281 20.9823C18.51 19.989 18.0958 18.7931 17.1029 18.3105C16.1099 17.828 14.9137 18.2413 14.4304 19.234L16.2287 20.1094ZM16.2424 19.9961L18.2388 20.1149L18.2388 20.1149L16.2424 19.9961ZM16.2384 19.4199L14.2391 19.4728V19.4728L16.2384 19.4199ZM16.0031 17.7559L17.8509 16.9905L17.8508 16.9903L16.0031 17.7559ZM14.2443 15.9971L15.0098 14.1494L15.0096 14.1493L14.2443 15.9971ZM13.1379 15.7861L13.274 13.7908L13.274 13.7908L13.1379 15.7861ZM9.50016 2.25V0.25H9.50014L9.50016 2.25ZM9.50016 11.75L9.50014 13.75H9.50016V11.75ZM11.0002 14.25V16.25C11.9477 16.25 12.5977 16.2509 13.1034 16.2854L13.2394 14.29L13.3755 12.2947C12.7028 12.2488 11.8954 12.25 11.0002 12.25V14.25ZM13.2394 14.29L13.1033 16.2854C13.5982 16.3192 13.8631 16.3808 14.0524 16.4592L14.8175 14.6113L15.5827 12.7635C14.8239 12.4493 14.0723 12.3422 13.3756 12.2947L13.2394 14.29ZM14.8175 14.6113L14.0522 16.4591C14.726 16.7382 15.262 17.2742 15.5411 17.948L17.3888 17.1826L19.2366 16.4172C18.5515 14.7633 17.2369 13.4487 15.5829 12.7636L14.8175 14.6113ZM17.3888 17.1826L15.541 17.9477C15.6489 18.2085 15.7167 18.5841 15.7391 19.4328L17.7384 19.3799L19.7377 19.327C19.7134 18.4084 19.644 17.4012 19.2367 16.4175L17.3888 17.1826ZM17.7384 19.3799L15.7391 19.4328C15.7469 19.7259 15.7497 19.8684 15.7439 19.9664L17.7404 20.085L19.7369 20.2036C19.7552 19.8947 19.7437 19.5531 19.7377 19.327L17.7384 19.3799ZM17.7404 20.085L15.7439 19.9661C15.7417 20.0037 15.7393 20.0069 15.7429 19.9906C15.747 19.9717 15.7572 19.9351 15.7788 19.8908L17.5773 20.7656L19.3758 21.6405C19.6475 21.082 19.7156 20.5603 19.7369 20.2038L17.7404 20.085ZM17.5773 20.7656L15.7789 19.8905C15.7934 19.8608 15.8093 19.84 15.824 19.8249C15.8387 19.8098 15.8591 19.7933 15.8886 19.778L16.8107 21.5527L17.7329 23.3275C18.4443 22.9578 19.025 22.3614 19.3757 21.6408L17.5773 20.7656ZM16.8107 21.5527L15.8887 19.7779C15.9858 19.7275 16.0448 19.7332 15.9593 19.7404L16.1261 21.7334L16.293 23.7264C16.6399 23.6974 17.1705 23.6196 17.7327 23.3275L16.8107 21.5527ZM16.1261 21.7334L15.9596 19.7403C15.8551 19.7491 15.703 19.75 15.4006 19.75L15.4006 21.75L15.4006 23.75C15.6378 23.75 15.9836 23.7523 16.2927 23.7265L16.1261 21.7334ZM15.4006 21.75V19.75H3.59977V21.75V23.75H15.4006V21.75ZM3.59977 21.75L3.59977 19.75C3.29727 19.75 3.14522 19.7491 3.04077 19.7403L2.87419 21.7334L2.70761 23.7264C3.01675 23.7523 3.36256 23.75 3.59978 23.75L3.59977 21.75ZM2.87419 21.7334L3.04104 19.7404C2.95541 19.7332 3.01446 19.7275 3.11171 19.778L2.18962 21.5527L1.26753 23.3275C1.82988 23.6197 2.36054 23.6974 2.70733 23.7264L2.87419 21.7334ZM2.18962 21.5527L3.11182 19.778C3.14125 19.7933 3.16162 19.8098 3.17631 19.8249C3.19101 19.84 3.20692 19.8608 3.2214 19.8905L1.42302 20.7656L-0.375368 21.6407C-0.024658 22.3615 0.556053 22.9578 1.26741 23.3274L2.18962 21.5527ZM1.42302 20.7656L3.22155 19.8908C3.24312 19.9352 3.25333 19.9717 3.25746 19.9906C3.26101 20.0068 3.25863 20.0037 3.2564 19.9661L1.25993 20.085L-0.736535 20.2038C-0.715311 20.5604 -0.647109 21.0821 -0.375517 21.6404L1.42302 20.7656ZM1.25993 20.085L3.25641 19.9664C3.25059 19.8684 3.25343 19.7259 3.26118 19.4328L1.26188 19.3799L-0.737417 19.327C-0.743399 19.5531 -0.754897 19.8947 -0.73655 20.2036L1.25993 20.085ZM1.26188 19.3799L3.26118 19.4328C3.28364 18.5841 3.35139 18.2085 3.45935 17.9477L1.61149 17.1826L-0.236368 16.4175C-0.643697 17.4012 -0.713109 18.4084 -0.737416 19.327L1.26188 19.3799ZM1.61149 17.1826L3.45925 17.948C3.73835 17.2742 4.27433 16.7382 4.94817 16.4591L4.18278 14.6113L3.4174 12.7636C1.76351 13.4487 0.448817 14.7633 -0.236266 16.4173L1.61149 17.1826ZM4.18278 14.6113L4.94792 16.4592C5.13721 16.3808 5.40211 16.3192 5.89706 16.2854L5.76091 14.29L5.62475 12.2947C4.92805 12.3422 4.17642 12.4493 3.41765 12.7635L4.18278 14.6113ZM5.76091 14.29L5.89697 16.2854C6.40263 16.2509 7.05259 16.25 8.00016 16.25V14.25V12.25C7.10497 12.25 6.29758 12.2488 5.62484 12.2947L5.76091 14.29ZM8.00016 14.25V16.25H11.0002V14.25V12.25H8.00016V14.25ZM8.00016 15.75V13.75C7.0864 13.75 6.3368 13.7491 5.72633 13.7908L5.86247 15.7861L5.99861 17.7815C6.44088 17.7513 7.02969 17.75 8.00016 17.75V15.75ZM5.86247 15.7861L5.72629 13.7908C5.10635 13.8331 4.53668 13.9231 3.99066 14.1493L4.75602 15.9971L5.52139 17.8448C5.49717 17.8549 5.5795 17.8101 5.99865 17.7815L5.86247 15.7861ZM4.75602 15.9971L3.99048 14.1494C2.70447 14.6822 1.68238 15.7043 1.14954 16.9903L2.99724 17.7559L4.84493 18.5214C4.97178 18.2152 5.21534 17.9716 5.52157 17.8448L4.75602 15.9971ZM2.99724 17.7559L1.14947 16.9905C0.853358 17.7054 0.78607 18.4794 0.762583 19.367L2.76188 19.4199L4.76118 19.4728C4.77167 19.0765 4.79139 18.835 4.81353 18.6801C4.83397 18.5371 4.85145 18.5056 4.845 18.5212L2.99724 17.7559ZM2.76188 19.4199L0.762583 19.367C0.755999 19.6159 0.747804 19.8846 0.761508 20.1149L2.75798 19.9961L4.75445 19.8773C4.75481 19.8833 4.75346 19.8639 4.75423 19.7891C4.75499 19.7151 4.75733 19.6184 4.76118 19.4728L2.76188 19.4199ZM2.75798 19.9961L0.761512 20.1149C0.768901 20.2391 0.783531 20.3751 0.813536 20.5161C0.824927 20.5697 0.85093 20.6841 0.902285 20.82C0.908103 20.8354 0.929226 20.8914 0.961589 20.9606C0.963205 20.964 1.02472 21.102 1.13127 21.2552C1.16293 21.3008 1.22885 21.392 1.32691 21.4947C1.38576 21.5564 1.64271 21.8277 2.07937 21.9892C2.3109 22.0593 2.86225 22.1115 3.17313 22.0731C3.50213 21.976 4.05544 21.6485 4.27196 21.438C4.68334 20.9725 4.7441 20.4669 4.75627 20.3744C4.79442 20.0844 4.75633 19.8523 4.75349 19.8323C4.74308 19.7589 4.7307 19.7016 4.7243 19.6732C4.7108 19.6134 4.69738 19.567 4.69133 19.5466C4.67758 19.5 4.66489 19.4634 4.6578 19.4434C4.62885 19.3619 4.59813 19.2921 4.57073 19.2357L2.77165 20.1094L0.972569 20.983C0.946777 20.9299 0.917047 20.8626 0.888579 20.7824C0.881602 20.7628 0.868996 20.7264 0.855301 20.6801C0.849286 20.6597 0.835885 20.6134 0.822391 20.5536C0.816003 20.5253 0.803628 20.468 0.793212 20.3946C0.790381 20.3747 0.752294 20.1426 0.79044 19.8526C0.802609 19.7601 0.863364 19.2545 1.27475 18.789C1.49126 18.5785 2.04457 18.251 2.37358 18.1539C2.68445 18.1155 3.23581 18.1677 3.46733 18.2378C3.90399 18.3993 4.16094 18.6706 4.21978 18.7323C4.31783 18.8349 4.38375 18.9262 4.41541 18.9717C4.52195 19.125 4.58344 19.2629 4.58502 19.2663C4.61732 19.3353 4.63836 19.3911 4.64406 19.4061C4.6945 19.5396 4.71794 19.646 4.72595 19.6837C4.74918 19.7928 4.75375 19.8656 4.75444 19.8773L2.75798 19.9961ZM2.77165 20.1094L0.973292 20.9845C1.18365 21.4168 1.53415 21.775 1.95665 21.9952L2.88102 20.2217L3.8054 18.4481C3.99924 18.5491 4.14468 18.6695 4.2504 18.778C4.35601 18.8864 4.47346 19.0358 4.57001 19.2342L2.77165 20.1094ZM2.88102 20.2217L3.79684 18.4437C3.74214 18.4155 3.68356 18.3884 3.62126 18.3634C3.61961 18.3628 3.53056 18.3258 3.41612 18.2937C3.39544 18.2879 3.34634 18.2744 3.28282 18.2612C3.25188 18.2548 3.19317 18.2433 3.11857 18.2341C3.07714 18.2291 2.88401 18.2042 2.63902 18.2334C2.49467 18.256 2.12209 18.3668 1.90296 18.4719C1.57196 18.7028 1.02967 19.4502 0.892983 19.9581C0.882918 20.3874 1.05876 21.055 1.18427 21.2864C1.273 21.4156 1.43931 21.6109 1.51064 21.6809C1.6426 21.8042 1.76163 21.8808 1.7977 21.9039C1.85026 21.9375 1.89395 21.962 1.91897 21.9756C2.00337 22.0216 2.07336 22.0513 2.0827 22.0554C2.10777 22.0662 2.1283 22.0745 2.14091 22.0795C2.26967 22.1303 2.37854 22.1576 2.43038 22.1698C2.56827 22.2023 2.70384 22.2205 2.83212 22.2313L2.99919 20.2383L3.16626 18.2453C3.17495 18.246 3.24364 18.2519 3.34846 18.2766C3.38376 18.2849 3.48453 18.3094 3.61129 18.3595C3.62377 18.3644 3.6442 18.3727 3.66919 18.3834C3.67845 18.3875 3.74839 18.4172 3.83275 18.4631C3.85776 18.4768 3.90144 18.5012 3.954 18.5349C3.99007 18.5579 4.1091 18.6345 4.24105 18.7578C4.31237 18.8278 4.47869 19.0232 4.56742 19.1523C4.69292 19.3838 4.86877 20.0513 4.8587 20.4806C4.72201 20.9886 4.17973 21.7359 3.84873 21.9668C3.6296 22.0719 3.25702 22.1827 3.11267 22.2053C2.86769 22.2345 2.67455 22.2096 2.63313 22.2046C2.55854 22.1955 2.49984 22.184 2.4689 22.1775C2.4054 22.1643 2.35632 22.1508 2.33568 22.145C2.22145 22.113 2.13297 22.0762 2.13219 22.0759C2.07163 22.0516 2.01601 22.0258 1.96521 21.9997L2.88102 20.2217ZM2.99919 20.2383L2.8326 22.2313C3.06498 22.2508 3.33794 22.25 3.59977 22.25L3.59977 20.25L3.59978 18.25C3.45004 18.25 3.34825 18.2497 3.26996 18.2485C3.19062 18.2472 3.16543 18.2452 3.16578 18.2452L2.99919 20.2383ZM3.59977 20.25V22.25H15.4006V20.25V18.25H3.59977V20.25ZM15.4006 20.25L15.4006 22.25C15.6624 22.25 15.9353 22.2507 16.1677 22.2313L16.0011 20.2383L15.8346 18.2452C15.8349 18.2452 15.8097 18.2472 15.7304 18.2485C15.6521 18.2497 15.5503 18.25 15.4006 18.25L15.4006 20.25ZM16.0011 20.2383L16.1681 22.2313C16.2966 22.2205 16.4325 22.2023 16.5709 22.1696C16.6217 22.1576 16.7329 22.1299 16.8646 22.0774C16.8776 22.0722 16.8995 22.0633 16.9262 22.0516C16.9339 22.0483 17.0134 22.0143 17.108 21.9608C17.136 21.945 17.1879 21.9149 17.2502 21.8725C17.2868 21.8475 17.4439 21.7415 17.6056 21.5634C17.6959 21.4566 17.8956 21.1484 17.9897 20.9412C18.0916 20.5805 18.0582 19.7084 17.8694 19.2419C17.6131 18.8836 17.0448 18.4437 16.787 18.3323C16.6249 18.283 16.3526 18.2324 16.2453 18.223C16.0515 18.2113 15.9006 18.2314 15.8562 18.2374C15.7905 18.2463 15.7384 18.2567 15.7091 18.263C15.6498 18.2755 15.6038 18.2882 15.5831 18.294C15.4698 18.3259 15.382 18.3623 15.3789 18.3635C15.3162 18.3887 15.2572 18.416 15.2023 18.4443L16.1193 20.2217L17.0363 21.9991C16.9853 22.0254 16.9293 22.0514 16.8683 22.0759C16.8662 22.0767 16.7789 22.1129 16.6658 22.1447C16.6451 22.1505 16.5992 22.1631 16.5399 22.1757C16.5106 22.182 16.4585 22.1924 16.3929 22.2013C16.3485 22.2073 16.1975 22.2274 16.0038 22.2157C15.8965 22.2063 15.6241 22.1557 15.462 22.1064C15.2042 21.995 14.636 21.5551 14.3797 21.1968C14.1909 20.7303 14.1574 19.8582 14.2593 19.4975C14.3534 19.2903 14.5531 18.9821 14.6435 18.8753C14.8051 18.6972 14.9622 18.5912 14.9989 18.5662C15.0611 18.5238 15.113 18.4937 15.141 18.4779C15.2356 18.4245 15.315 18.3905 15.3226 18.3871C15.3493 18.3755 15.3711 18.3667 15.384 18.3615C15.5137 18.3098 15.6169 18.2849 15.6511 18.2768C15.7564 18.2519 15.8254 18.246 15.8341 18.2453L16.0011 20.2383ZM16.1193 20.2217L17.0433 21.9955C17.4665 21.775 17.8168 21.4165 18.0269 20.9848L16.2287 20.1094L14.4304 19.234C14.5269 19.0359 14.6441 18.8866 14.7498 18.7781C14.8556 18.6696 15.0012 18.549 15.1954 18.4479L16.1193 20.2217ZM16.2287 20.1094L14.4292 19.2364C14.4019 19.2928 14.3712 19.3626 14.3423 19.4441C14.3352 19.464 14.3224 19.501 14.3086 19.5479C14.3026 19.5684 14.2889 19.6158 14.2752 19.677C14.2687 19.7058 14.256 19.7655 14.2455 19.8421C14.2435 19.8568 14.2017 20.1116 14.2516 20.4263C14.2671 20.5242 14.3514 21.1028 14.8686 21.5814C15.1242 21.782 15.7317 22.0512 16.0691 22.1072C16.3592 22.1091 16.8543 22.0125 17.0549 21.9341C17.4282 21.7643 17.6485 21.5228 17.7038 21.4622C17.7914 21.3663 17.851 21.282 17.8806 21.2384C17.9801 21.0922 18.0381 20.962 18.0407 20.9565C18.0721 20.8887 18.0928 20.8341 18.0986 20.8185C18.1496 20.6833 18.1755 20.5695 18.1869 20.5157C18.2168 20.3749 18.2314 20.239 18.2388 20.1149L16.2424 19.9961L14.2459 19.8772C14.2466 19.8657 14.2511 19.793 14.2743 19.684C14.2824 19.6462 14.3057 19.5404 14.3557 19.4076C14.3615 19.3924 14.382 19.3379 14.4134 19.2703C14.416 19.2648 14.4739 19.1347 14.5734 18.9885C14.603 18.9449 14.6626 18.8607 14.7502 18.7648C14.8055 18.7042 15.0258 18.4626 15.3991 18.2929C15.5997 18.2144 16.0948 18.1179 16.3848 18.1197C16.7222 18.1758 17.3298 18.445 17.5853 18.6455C18.1025 19.1241 18.1869 19.7027 18.2024 19.8006C18.2522 20.1154 18.2105 20.3701 18.2085 20.3848C18.198 20.4614 18.1852 20.5211 18.1788 20.5498C18.1651 20.611 18.1514 20.6583 18.1454 20.6787C18.1317 20.7255 18.119 20.7621 18.112 20.7817C18.0835 20.8619 18.0538 20.9293 18.0281 20.9823L16.2287 20.1094ZM16.2424 19.9961L18.2388 20.1149C18.2525 19.8846 18.2443 19.6159 18.2377 19.367L16.2384 19.4199L14.2391 19.4728C14.243 19.6184 14.2453 19.7151 14.2461 19.7891C14.2469 19.8639 14.2455 19.8833 14.2459 19.8773L16.2424 19.9961ZM16.2384 19.4199L18.2377 19.367C18.2143 18.4794 18.147 17.7054 17.8509 16.9905L16.0031 17.7559L14.1553 18.5212C14.1489 18.5057 14.1664 18.5371 14.1868 18.68C14.2089 18.835 14.2287 19.0765 14.2391 19.4728L16.2384 19.4199ZM16.0031 17.7559L17.8508 16.9903C17.318 15.7043 16.2959 14.6822 15.0098 14.1494L14.2443 15.9971L13.4788 17.8448C13.785 17.9716 14.0285 18.2152 14.1554 18.5214L16.0031 17.7559ZM14.2443 15.9971L15.0096 14.1493C14.4637 13.9232 13.894 13.8331 13.274 13.7908L13.1379 15.7861L13.0017 17.7815C13.4208 17.8101 13.5032 17.8549 13.479 17.8449L14.2443 15.9971ZM13.1379 15.7861L13.274 13.7908C12.6635 13.7491 11.9139 13.75 11.0002 13.75V15.75V17.75C11.9706 17.75 12.5595 17.7513 13.0017 17.7815L13.1379 15.7861ZM11.0002 15.75V13.75H8.00016V15.75V17.75H11.0002V15.75ZM9.50016 2.25V4.25C11.0189 4.25 12.2502 5.48122 12.2502 7H14.2502H16.2502C16.2502 3.27208 13.2281 0.25 9.50016 0.25V2.25ZM14.2502 7H12.2502C12.2502 8.51878 11.0189 9.75 9.50016 9.75V11.75V13.75C13.2281 13.75 16.2502 10.7279 16.2502 7H14.2502ZM9.50016 11.75L9.50019 9.75C7.98139 9.74998 6.75016 8.51874 6.75016 7H4.75016H2.75016C2.75016 10.7279 5.77228 13.75 9.50014 13.75L9.50016 11.75ZM4.75016 7H6.75016C6.75016 5.48126 7.98139 4.25002 9.50019 4.25L9.50016 2.25L9.50014 0.25C5.77228 0.250041 2.75016 3.27207 2.75016 7H4.75016Z" fill="white" mask="url(#path-3-outside-1_591_499)"/>
<mask id="path-5-outside-2_591_499" maskUnits="userSpaceOnUse" x="-0.746582" y="0.25" width="21" height="24" fill="black">
<rect fill="white" x="-0.746582" y="0.25" width="21" height="24"/>
<path d="M11.0002 14.25C11.9215 14.25 12.6503 14.2499 13.2394 14.29C13.8352 14.3307 14.3436 14.4151 14.8175 14.6113C15.9813 15.0935 16.9068 16.0188 17.3888 17.1826C17.6465 17.8048 17.7151 18.4963 17.7384 19.3799C17.7453 19.6395 17.7525 19.8816 17.7404 20.085C17.7276 20.2999 17.6906 20.5327 17.5773 20.7656C17.4145 21.1002 17.1409 21.3811 16.8107 21.5527C16.5782 21.6735 16.3423 21.7153 16.1261 21.7334C15.9194 21.7507 15.6703 21.75 15.4006 21.75H3.59977C3.33001 21.75 3.08095 21.7507 2.87419 21.7334C2.65803 21.7153 2.42212 21.6735 2.18962 21.5527C1.85941 21.3812 1.58587 21.1002 1.42302 20.7656C1.30969 20.5326 1.27273 20.2999 1.25993 20.085C1.24785 19.8816 1.25501 19.6395 1.26188 19.3799C1.28527 18.4962 1.35384 17.8049 1.61149 17.1826C2.0936 16.0188 3.01893 15.0934 4.18278 14.6113C4.65676 14.4151 5.16516 14.3307 5.76091 14.29C6.35007 14.2499 7.07889 14.25 8.00017 14.25H11.0002ZM8.00017 15.75C7.05818 15.75 6.38881 15.7502 5.86247 15.7861C5.34305 15.8216 5.01689 15.8891 4.75602 15.9971C3.95991 16.3269 3.3271 16.9598 2.99724 17.7559C2.8521 18.1062 2.78462 18.5605 2.76188 19.4199C2.75433 19.7053 2.7506 19.872 2.75798 19.9961C2.76221 20.0671 2.76875 20.0989 2.77165 20.1094C2.79355 20.1543 2.83669 20.1986 2.88102 20.2217C2.86538 20.2136 2.87944 20.2282 2.99919 20.2383C3.12906 20.2491 3.3049 20.25 3.59977 20.25H15.4006C15.6955 20.25 15.8713 20.2491 16.0011 20.2383C16.1201 20.2283 16.1346 20.2139 16.1193 20.2217C16.1636 20.1985 16.2068 20.1543 16.2287 20.1094C16.2222 20.1226 16.2357 20.1086 16.2424 19.9961C16.2497 19.872 16.246 19.7052 16.2384 19.4199C16.2157 18.5606 16.1482 18.1062 16.0031 17.7559C15.6733 16.9598 15.0403 16.3269 14.2443 15.9971C13.9834 15.889 13.6573 15.8216 13.1379 15.7861C12.6115 15.7502 11.9422 15.75 11.0002 15.75H8.00017ZM9.50017 2.25C12.1234 2.25015 14.2502 4.37674 14.2502 7C14.2502 9.62326 12.1234 11.7499 9.50017 11.75C6.87681 11.75 4.75017 9.62335 4.75017 7C4.75017 4.37665 6.87681 2.25 9.50017 2.25Z"/>
</mask>
<path d="M11.0002 14.25C11.9215 14.25 12.6503 14.2499 13.2394 14.29C13.8352 14.3307 14.3436 14.4151 14.8175 14.6113C15.9813 15.0935 16.9068 16.0188 17.3888 17.1826C17.6465 17.8048 17.7151 18.4963 17.7384 19.3799C17.7453 19.6395 17.7525 19.8816 17.7404 20.085C17.7276 20.2999 17.6906 20.5327 17.5773 20.7656C17.4145 21.1002 17.1409 21.3811 16.8107 21.5527C16.5782 21.6735 16.3423 21.7153 16.1261 21.7334C15.9194 21.7507 15.6703 21.75 15.4006 21.75H3.59977C3.33001 21.75 3.08095 21.7507 2.87419 21.7334C2.65803 21.7153 2.42212 21.6735 2.18962 21.5527C1.85941 21.3812 1.58587 21.1002 1.42302 20.7656C1.30969 20.5326 1.27273 20.2999 1.25993 20.085C1.24785 19.8816 1.25501 19.6395 1.26188 19.3799C1.28527 18.4962 1.35384 17.8049 1.61149 17.1826C2.0936 16.0188 3.01893 15.0934 4.18278 14.6113C4.65676 14.4151 5.16516 14.3307 5.76091 14.29C6.35007 14.2499 7.07889 14.25 8.00017 14.25H11.0002ZM8.00017 15.75C7.05818 15.75 6.38881 15.7502 5.86247 15.7861C5.34305 15.8216 5.01689 15.8891 4.75602 15.9971C3.95991 16.3269 3.3271 16.9598 2.99724 17.7559C2.8521 18.1062 2.78462 18.5605 2.76188 19.4199C2.75433 19.7053 2.7506 19.872 2.75798 19.9961C2.76221 20.0671 2.76875 20.0989 2.77165 20.1094C2.79355 20.1543 2.83669 20.1986 2.88102 20.2217C2.86538 20.2136 2.87944 20.2282 2.99919 20.2383C3.12906 20.2491 3.3049 20.25 3.59977 20.25H15.4006C15.6955 20.25 15.8713 20.2491 16.0011 20.2383C16.1201 20.2283 16.1346 20.2139 16.1193 20.2217C16.1636 20.1985 16.2068 20.1543 16.2287 20.1094C16.2222 20.1226 16.2357 20.1086 16.2424 19.9961C16.2497 19.872 16.246 19.7052 16.2384 19.4199C16.2157 18.5606 16.1482 18.1062 16.0031 17.7559C15.6733 16.9598 15.0403 16.3269 14.2443 15.9971C13.9834 15.889 13.6573 15.8216 13.1379 15.7861C12.6115 15.7502 11.9422 15.75 11.0002 15.75H8.00017ZM9.50017 2.25C12.1234 2.25015 14.2502 4.37674 14.2502 7C14.2502 9.62326 12.1234 11.7499 9.50017 11.75C6.87681 11.75 4.75017 9.62335 4.75017 7C4.75017 4.37665 6.87681 2.25 9.50017 2.25Z" fill="#464950"/>
<path d="M11.0002 14.25V16.25V16.25V14.25ZM13.2394 14.29L13.3756 12.2947L13.3755 12.2947L13.2394 14.29ZM14.8175 14.6113L15.583 12.7636L15.5827 12.7635L14.8175 14.6113ZM17.3888 17.1826L19.2367 16.4175L19.2366 16.4172L17.3888 17.1826ZM17.7384 19.3799L19.7377 19.327V19.327L17.7384 19.3799ZM17.7404 20.085L19.7369 20.2038L19.7369 20.2036L17.7404 20.085ZM17.5773 20.7656L19.3757 21.6407L19.3759 21.6403L17.5773 20.7656ZM16.8107 21.5527L17.7328 23.3275L17.7331 23.3273L16.8107 21.5527ZM16.1261 21.7334L16.2927 23.7264L16.2931 23.7264L16.1261 21.7334ZM15.4006 21.75L15.4006 19.75H15.4006V21.75ZM3.59977 21.75V19.75H3.59977L3.59977 21.75ZM2.87419 21.7334L2.70737 23.7264L2.70778 23.7265L2.87419 21.7334ZM2.18962 21.5527L1.26746 23.3275L1.26783 23.3276L2.18962 21.5527ZM1.42302 20.7656L-0.375503 21.6405L-0.375307 21.6409L1.42302 20.7656ZM1.25993 20.085L-0.736549 20.2036L-0.736535 20.2038L1.25993 20.085ZM1.26188 19.3799L-0.737416 19.327L-0.737416 19.327L1.26188 19.3799ZM1.61149 17.1826L-0.236249 16.4172L-0.236363 16.4175L1.61149 17.1826ZM4.18278 14.6113L3.41778 12.7634L3.41742 12.7636L4.18278 14.6113ZM5.76091 14.29L5.62489 12.2947L5.62476 12.2947L5.76091 14.29ZM5.86247 15.7861L5.72639 13.7908L5.7263 13.7908L5.86247 15.7861ZM4.75602 15.9971L3.9909 14.1492L3.99051 14.1494L4.75602 15.9971ZM2.99724 17.7559L1.14956 16.9903L1.14948 16.9905L2.99724 17.7559ZM2.76188 19.4199L0.762584 19.367L0.762583 19.367L2.76188 19.4199ZM2.75798 19.9961L0.761509 20.1149L0.761513 20.115L2.75798 19.9961ZM2.77165 20.1094L0.844435 20.644C0.877054 20.7616 0.920365 20.8759 0.973826 20.9856L2.77165 20.1094ZM2.88102 20.2217L1.96401 21.9991C2.94427 22.5048 4.14895 22.1214 4.65661 21.1422C5.16428 20.1629 4.78325 18.9575 3.80497 18.4479L2.88102 20.2217ZM2.99919 20.2383L2.83218 22.2313L2.83289 22.2314L2.99919 20.2383ZM3.59977 20.25L3.59977 22.25H3.59977V20.25ZM15.4006 20.25V22.25H15.4006L15.4006 20.25ZM16.0011 20.2383L16.1677 22.2313L16.1685 22.2313L16.0011 20.2383ZM16.1193 20.2217L15.1932 18.449C14.2171 18.959 13.8369 20.162 14.3427 21.1402C14.8485 22.1184 16.0499 22.5038 17.0302 22.0022L16.1193 20.2217ZM16.2287 20.1094L18.0277 20.9831C18.5101 19.9898 18.0962 18.7935 17.1031 18.3107C16.11 17.8279 14.9135 18.2413 14.4303 19.2342L16.2287 20.1094ZM16.2424 19.9961L18.2388 20.1149L18.2388 20.1149L16.2424 19.9961ZM16.2384 19.4199L14.2391 19.4728V19.4728L16.2384 19.4199ZM16.0031 17.7559L17.8509 16.9906L17.8508 16.9903L16.0031 17.7559ZM14.2443 15.9971L15.01 14.1494L15.0097 14.1493L14.2443 15.9971ZM13.1379 15.7861L13.2741 13.7908L13.274 13.7908L13.1379 15.7861ZM11.0002 15.75V13.75V13.75V15.75ZM9.50016 2.25L9.50028 0.25H9.50016V2.25ZM9.50016 11.75V13.75H9.50028L9.50016 11.75ZM11.0002 14.25V16.25C11.9476 16.25 12.5977 16.2509 13.1034 16.2854L13.2394 14.29L13.3755 12.2947C12.7028 12.2488 11.8953 12.25 11.0002 12.25V14.25ZM13.2394 14.29L13.1032 16.2854C13.5981 16.3192 13.8632 16.3808 14.0524 16.4592L14.8175 14.6113L15.5827 12.7635C14.824 12.4493 14.0722 12.3422 13.3756 12.2947L13.2394 14.29ZM14.8175 14.6113L14.0521 16.459C14.726 16.7382 15.262 17.2743 15.5411 17.948L17.3888 17.1826L19.2366 16.4172C18.5515 14.7633 17.2367 13.4487 15.583 12.7636L14.8175 14.6113ZM17.3888 17.1826L15.541 17.9477C15.6489 18.2085 15.7167 18.5842 15.7391 19.4328L17.7384 19.3799L19.7377 19.327C19.7134 18.4084 19.644 17.4012 19.2367 16.4175L17.3888 17.1826ZM17.7384 19.3799L15.7391 19.4328C15.7469 19.7259 15.7497 19.8684 15.7439 19.9664L17.7404 20.085L19.7369 20.2036C19.7552 19.8947 19.7437 19.5531 19.7377 19.327L17.7384 19.3799ZM17.7404 20.085L15.7439 19.9661C15.7417 20.0036 15.7393 20.0067 15.7429 19.9906C15.747 19.9718 15.7572 19.9353 15.7787 19.8909L17.5773 20.7656L19.3759 21.6403C19.6474 21.0821 19.7156 20.5605 19.7369 20.2038L17.7404 20.085ZM17.5773 20.7656L15.7789 19.8905C15.7935 19.8606 15.8094 19.8398 15.824 19.8248C15.8386 19.8098 15.8589 19.7934 15.8883 19.7781L16.8107 21.5527L17.7331 23.3273C18.4441 22.9578 19.0249 22.3615 19.3757 21.6407L17.5773 20.7656ZM16.8107 21.5527L15.8886 19.778C15.986 19.7274 16.0449 19.7332 15.9592 19.7404L16.1261 21.7334L16.2931 23.7264C16.6397 23.6974 17.1705 23.6196 17.7328 23.3275L16.8107 21.5527ZM16.1261 21.7334L15.9596 19.7403C15.8552 19.7491 15.703 19.75 15.4006 19.75L15.4006 21.75L15.4005 23.75C15.6377 23.75 15.9836 23.7523 16.2927 23.7264L16.1261 21.7334ZM15.4006 21.75V19.75H3.59977V21.75V23.75H15.4006V21.75ZM3.59977 21.75L3.59977 19.75C3.29756 19.75 3.14515 19.7491 3.04059 19.7403L2.87419 21.7334L2.70778 23.7265C3.01674 23.7523 3.36246 23.75 3.59978 23.75L3.59977 21.75ZM2.87419 21.7334L3.04101 19.7404C2.95582 19.7332 3.01447 19.7275 3.11141 19.7778L2.18962 21.5527L1.26783 23.3276C1.82978 23.6195 2.36023 23.6974 2.70737 23.7264L2.87419 21.7334ZM2.18962 21.5527L3.11177 19.778C3.1413 19.7934 3.16169 19.8099 3.17636 19.8249C3.19102 19.84 3.20689 19.8607 3.22134 19.8904L1.42302 20.7656L-0.375307 21.6409C-0.024658 22.3613 0.555958 22.9578 1.26746 23.3275L2.18962 21.5527ZM1.42302 20.7656L3.22154 19.8908C3.24311 19.9352 3.25333 19.9717 3.25747 19.9906C3.26102 20.0069 3.25863 20.0037 3.2564 19.9661L1.25993 20.085L-0.736535 20.2038C-0.715311 20.5603 -0.647124 21.082 -0.375503 21.6405L1.42302 20.7656ZM1.25993 20.085L3.25641 19.9664C3.25059 19.8684 3.25343 19.7259 3.26118 19.4328L1.26188 19.3799L-0.737416 19.327C-0.743399 19.5531 -0.754897 19.8947 -0.736549 20.2036L1.25993 20.085ZM1.26188 19.3799L3.26118 19.4328C3.28364 18.5841 3.35139 18.2085 3.45935 17.9477L1.61149 17.1826L-0.236363 16.4175C-0.643705 17.4012 -0.713109 18.4084 -0.737416 19.327L1.26188 19.3799ZM1.61149 17.1826L3.45924 17.948C3.73837 17.2742 4.27438 16.7382 4.94815 16.4591L4.18278 14.6113L3.41742 12.7636C1.76348 13.4487 0.448833 14.7634 -0.236249 16.4172L1.61149 17.1826ZM4.18278 14.6113L4.94778 16.4592C5.13718 16.3808 5.40233 16.3192 5.89705 16.2854L5.76091 14.29L5.62476 12.2947C4.92798 12.3422 4.17635 12.4494 3.41778 12.7634L4.18278 14.6113ZM5.76091 14.29L5.89692 16.2854C6.40259 16.2509 7.05276 16.25 8.00016 16.25V14.25V12.25C7.10503 12.25 6.29755 12.2488 5.62489 12.2947L5.76091 14.29ZM8.00016 14.25V16.25H11.0002V14.25V12.25H8.00016V14.25ZM8.00016 15.75V13.75C7.08648 13.75 6.33678 13.7491 5.72639 13.7908L5.86247 15.7861L5.99855 17.7815C6.44084 17.7513 7.02988 17.75 8.00016 17.75V15.75ZM5.86247 15.7861L5.7263 13.7908C5.10627 13.8331 4.53665 13.9232 3.9909 14.1492L4.75602 15.9971L5.52115 17.8449C5.49714 17.8549 5.57982 17.8101 5.99864 17.7815L5.86247 15.7861ZM4.75602 15.9971L3.99051 14.1494C2.70442 14.6822 1.68239 15.7043 1.14956 16.9903L2.99724 17.7559L4.84491 18.5214C4.9718 18.2152 5.21541 17.9716 5.52154 17.8448L4.75602 15.9971ZM2.99724 17.7559L1.14948 16.9905C0.853349 17.7054 0.78607 18.4794 0.762584 19.367L2.76188 19.4199L4.76118 19.4728C4.77167 19.0765 4.79139 18.835 4.81353 18.68C4.83397 18.5371 4.85144 18.5057 4.84499 18.5212L2.99724 17.7559ZM2.76188 19.4199L0.762583 19.367C0.755999 19.6159 0.747804 19.8846 0.761509 20.1149L2.75798 19.9961L4.75445 19.8773C4.75481 19.8833 4.75346 19.8639 4.75423 19.7891C4.75499 19.7151 4.75733 19.6184 4.76118 19.4728L2.76188 19.4199ZM2.75798 19.9961L0.761513 20.115C0.769346 20.2465 0.787207 20.4377 0.844435 20.644L2.77165 20.1094L4.69886 19.5747C4.715 19.6329 4.72535 19.6809 4.73173 19.7135C4.73851 19.7482 4.7431 19.7773 4.74618 19.7994C4.75225 19.843 4.75406 19.8708 4.75444 19.8772L2.75798 19.9961ZM2.77165 20.1094L0.973826 20.9856C1.18362 21.4161 1.53332 21.7747 1.95708 21.9955L2.88102 20.2217L3.80497 18.4479C3.99954 18.5492 4.14516 18.67 4.25063 18.7782C4.35608 18.8865 4.47314 19.0355 4.56947 19.2331L2.77165 20.1094ZM2.88102 20.2217L3.79804 18.4443C3.74313 18.416 3.68419 18.3887 3.6214 18.3635C3.61837 18.3623 3.53051 18.3259 3.41723 18.294C3.39652 18.2882 3.35053 18.2756 3.29127 18.263C3.26194 18.2567 3.20985 18.2463 3.14418 18.2374C3.09978 18.2314 2.94887 18.2113 2.75513 18.223C2.64782 18.2324 2.37549 18.2829 2.21341 18.3322C1.95564 18.4436 1.38742 18.8834 1.13105 19.2417C0.942227 19.7082 0.908658 20.5804 1.01056 20.9411C1.10466 21.1484 1.30437 21.4565 1.39473 21.5634C1.55638 21.7415 1.7135 21.8475 1.75013 21.8725C1.8124 21.9149 1.86432 21.945 1.89232 21.9608C1.98692 22.0143 2.06641 22.0483 2.0741 22.0516C2.10085 22.0633 2.1227 22.0722 2.13575 22.0774C2.26742 22.1299 2.37868 22.1576 2.42944 22.1696C2.56778 22.2023 2.70372 22.2205 2.83218 22.2313L2.99919 20.2383L3.16619 18.2453C3.17491 18.246 3.24394 18.2519 3.34923 18.2768C3.38346 18.2849 3.48665 18.3098 3.61634 18.3615C3.62927 18.3667 3.65102 18.3755 3.67769 18.3871C3.6853 18.3905 3.76474 18.4245 3.85931 18.4779C3.8873 18.4937 3.93922 18.5238 4.00148 18.5662C4.03811 18.5912 4.19522 18.6972 4.35687 18.8753C4.44723 18.9822 4.64694 19.2903 4.74104 19.4976C4.84294 19.8583 4.80937 20.7305 4.62055 21.197C4.36418 21.5553 3.79596 21.9951 3.53819 22.1065C3.37611 22.1558 3.10379 22.2063 2.99648 22.2157C2.80274 22.2274 2.65183 22.2073 2.60744 22.2013C2.54177 22.1924 2.4897 22.1819 2.46038 22.1757C2.40113 22.1631 2.35517 22.1505 2.33448 22.1447C2.22143 22.1129 2.13415 22.0767 2.13199 22.0758C2.07097 22.0514 2.015 22.0254 1.96401 21.9991L2.88102 20.2217ZM2.99919 20.2383L2.83289 22.2314C3.06502 22.2507 3.33783 22.25 3.59977 22.25L3.59977 20.25L3.59978 18.25C3.45021 18.25 3.34838 18.2497 3.27006 18.2485C3.19066 18.2472 3.1653 18.2452 3.16549 18.2452L2.99919 20.2383ZM3.59977 20.25V22.25H15.4006V20.25V18.25H3.59977V20.25ZM15.4006 20.25L15.4006 22.25C15.6623 22.25 15.9354 22.2508 16.1677 22.2313L16.0011 20.2383L15.8346 18.2452C15.8349 18.2452 15.8097 18.2472 15.7303 18.2485C15.652 18.2497 15.5502 18.25 15.4005 18.25L15.4006 20.25ZM16.0011 20.2383L16.1685 22.2313C16.296 22.2206 16.4301 22.2026 16.5662 22.1707C16.6217 22.1577 16.722 22.1323 16.84 22.087C16.851 22.0828 16.8671 22.0765 16.8865 22.0685C16.8985 22.0636 16.9423 22.0455 16.9967 22.0191C17.0119 22.0118 17.0953 21.9719 17.1946 21.909C17.2215 21.892 17.3841 21.7915 17.5529 21.6192C17.6549 21.5068 17.8912 21.1565 18.0018 20.9087C18.1128 20.4336 17.9327 19.3653 17.5941 18.863C17.2807 18.5876 16.7039 18.3053 16.4833 18.2519C16.3549 18.2328 16.1439 18.2195 16.0622 18.2204C15.9147 18.225 15.801 18.2454 15.7657 18.2519C15.6764 18.2681 15.608 18.2871 15.5895 18.2923C15.5068 18.3152 15.4426 18.3392 15.4378 18.3409C15.4147 18.3494 15.395 18.3571 15.3796 18.3632C15.3193 18.3874 15.2622 18.4136 15.2084 18.4412L16.1193 20.2217L17.0302 22.0022C16.9802 22.0278 16.926 22.0528 16.8674 22.0762C16.8524 22.0822 16.833 22.0898 16.8102 22.0981C16.8056 22.0998 16.7416 22.1237 16.6591 22.1466C16.6406 22.1518 16.5722 22.1708 16.4829 22.187C16.4476 22.1935 16.3339 22.2139 16.1865 22.2185C16.1047 22.2193 15.8937 22.2061 15.7653 22.187C15.5447 22.1336 14.9679 21.8512 14.6546 21.5759C14.3159 21.0736 14.1358 20.0053 14.2468 19.5302C14.3574 19.2824 14.5937 18.9321 14.6958 18.8197C14.8646 18.6474 15.0272 18.5469 15.054 18.5299C15.1533 18.4671 15.2367 18.4271 15.2518 18.4198C15.3063 18.3934 15.35 18.3754 15.3618 18.3705C15.3812 18.3625 15.3972 18.3563 15.408 18.3521C15.5239 18.3077 15.616 18.285 15.6549 18.2759C15.7579 18.2518 15.8252 18.246 15.8338 18.2453L16.0011 20.2383ZM16.1193 20.2217L17.0454 21.9943C17.4654 21.7749 17.8162 21.4178 18.027 20.9845L16.2287 20.1094L14.4303 19.2342C14.5273 19.035 14.6451 18.8855 14.7502 18.7777C14.8554 18.6697 15.0002 18.5498 15.1932 18.449L16.1193 20.2217ZM16.2287 20.1094L14.4296 19.2356C14.4022 19.2921 14.3715 19.3619 14.3426 19.4433C14.3355 19.4633 14.3228 19.4999 14.3091 19.5464C14.303 19.5668 14.2896 19.6131 14.2761 19.6729C14.2697 19.7012 14.2573 19.7586 14.2469 19.8319C14.2441 19.8518 14.206 20.0836 14.2439 20.3734C14.256 20.4656 14.3164 20.9713 14.7275 21.437C14.9441 21.6478 15.4977 21.9758 15.827 22.0731C16.1382 22.1115 16.69 22.0592 16.9217 21.989C17.3583 21.8272 17.6152 21.5557 17.6739 21.4942C17.7719 21.3916 17.8377 21.3003 17.8693 21.2548C17.9758 21.1017 18.0372 20.9638 18.0388 20.9604C18.0712 20.8912 18.0923 20.8354 18.0981 20.82C18.1494 20.6841 18.1754 20.5697 18.1868 20.5161C18.2168 20.3751 18.2314 20.2391 18.2388 20.1149L16.2424 19.9961L14.2459 19.8772C14.2466 19.8656 14.2512 19.7928 14.2744 19.6837C14.2824 19.646 14.3058 19.5397 14.3562 19.4062C14.3619 19.3911 14.383 19.3355 14.4152 19.2664C14.4168 19.2631 14.4782 19.1253 14.5846 18.9721C14.6163 18.9266 14.6821 18.8354 14.7801 18.7328C14.8388 18.6712 15.0956 18.3998 15.5323 18.238C15.7639 18.1678 16.3157 18.1155 16.6269 18.1539C16.9563 18.2512 17.5099 18.5792 17.7264 18.79C18.1375 19.2557 18.1979 19.7614 18.21 19.8536C18.248 20.1433 18.2099 20.3752 18.2071 20.3951C18.1966 20.4684 18.1843 20.5257 18.1779 20.5539C18.1644 20.6137 18.151 20.6599 18.145 20.6803C18.1313 20.7266 18.1187 20.7629 18.1117 20.7826C18.0833 20.8627 18.0535 20.93 18.0277 20.9831L16.2287 20.1094ZM16.2424 19.9961L18.2388 20.1149C18.2525 19.8846 18.2443 19.6159 18.2377 19.367L16.2384 19.4199L14.2391 19.4728C14.243 19.6184 14.2453 19.7151 14.2461 19.7891C14.2469 19.8639 14.2455 19.8833 14.2459 19.8773L16.2424 19.9961ZM16.2384 19.4199L18.2377 19.367C18.2143 18.4794 18.1469 17.7054 17.8509 16.9906L16.0031 17.7559L14.1553 18.5211C14.1489 18.5056 14.1663 18.5371 14.1868 18.6801C14.2089 18.835 14.2287 19.0766 14.2391 19.4728L16.2384 19.4199ZM16.0031 17.7559L17.8508 16.9903C17.3179 15.7042 16.2957 14.6822 15.01 14.1494L14.2443 15.9971L13.4786 17.8447C13.785 17.9716 14.0286 18.2153 14.1554 18.5214L16.0031 17.7559ZM14.2443 15.9971L15.0097 14.1493C14.4637 13.9231 13.8938 13.8331 13.2741 13.7908L13.1379 15.7861L13.0016 17.7815C13.4208 17.8101 13.5032 17.8549 13.4789 17.8448L14.2443 15.9971ZM13.1379 15.7861L13.274 13.7908C12.6636 13.7491 11.9138 13.75 11.0002 13.75V15.75V17.75C11.9705 17.75 12.5595 17.7513 13.0017 17.7815L13.1379 15.7861ZM11.0002 15.75V13.75H8.00016V15.75V17.75H11.0002V15.75ZM9.50016 2.25L9.50005 4.25C11.0189 4.25008 12.2502 5.48142 12.2502 7H14.2502H16.2502C16.2502 3.27206 13.2279 0.250207 9.50028 0.25L9.50016 2.25ZM14.2502 7H12.2502C12.2502 8.51858 11.0189 9.74992 9.50005 9.75L9.50016 11.75L9.50028 13.75C13.2279 13.7498 16.2502 10.7279 16.2502 7H14.2502ZM9.50016 11.75V9.75C7.98138 9.75 6.75016 8.51878 6.75016 7H4.75016H2.75017C2.75017 10.7279 5.77224 13.75 9.50016 13.75V11.75ZM4.75016 7H6.75016C6.75016 5.48122 7.98138 4.25 9.50016 4.25V2.25V0.25C5.77224 0.25 2.75017 3.27208 2.75017 7H4.75016Z" fill="white" mask="url(#path-5-outside-2_591_499)"/>
<path d="M17 20.5L2.5 21L2 19.1825L4 15.5L10 15L15.5 16L17 20.5Z" fill="#464950"/>
</g>
<defs>
<clipPath id="clip0_591_499">
<rect width="24" height="24" fill="white"/>
</clipPath>
</defs>
</svg>
