<svg width="18" height="18" viewBox="0 0 18 18" fill="none" xmlns="http://www.w3.org/2000/svg">
<path d="M9.675 5.62505L8.92201 4.11907C8.7053 3.68564 8.59693 3.46892 8.43527 3.31058C8.29232 3.17057 8.12002 3.06408 7.93085 2.99883C7.71694 2.92505 7.47464 2.92505 6.99005 2.92505H4.41C3.65393 2.92505 3.27589 2.92505 2.98711 3.07219C2.73309 3.20162 2.52657 3.40814 2.39714 3.66216C2.25 3.95094 2.25 4.32898 2.25 5.08505V5.62505M2.25 5.62505H12.51C13.6441 5.62505 14.2112 5.62505 14.6443 5.84576C15.0254 6.0399 15.3351 6.34969 15.5293 6.73072C15.75 7.16389 15.75 7.73094 15.75 8.86505V11.835C15.75 12.9692 15.75 13.5362 15.5293 13.9694C15.3351 14.3504 15.0254 14.6602 14.6443 14.8543C14.2112 15.075 13.6441 15.075 12.51 15.075H5.49C4.35589 15.075 3.78884 15.075 3.35567 14.8543C2.97464 14.6602 2.66486 14.3504 2.47071 13.9694C2.25 13.5362 2.25 12.9692 2.25 11.835V5.62505ZM9 12.375L11.025 10.35M11.025 10.35L9 8.32505M11.025 10.35H6.975" stroke="#464950" stroke-width="0.9" stroke-linecap="round" stroke-linejoin="round"/>
</svg>
