<svg width="24" height="24" viewBox="0 0 24 24" fill="none" xmlns="http://www.w3.org/2000/svg">
<path d="M2.06975 11.4999C2.06975 16.6638 6.25589 20.8499 11.4197 20.8499C12.6042 20.8499 13.7372 20.6297 14.7801 20.2279C14.9707 20.1544 15.0661 20.1177 15.1419 20.1002C15.2165 20.0831 15.2704 20.0759 15.3469 20.0729C15.4246 20.07 15.5099 20.0788 15.6805 20.0964L21.3137 20.6787C21.8507 20.7342 22.1193 20.762 22.2777 20.6654C22.4156 20.5812 22.5096 20.4406 22.5346 20.281C22.5633 20.0976 22.435 19.8601 22.1784 19.3851L20.3791 16.0548C20.231 15.7805 20.1569 15.6434 20.1233 15.5115C20.0902 15.3813 20.0822 15.2874 20.0928 15.1535C20.1035 15.0178 20.163 14.8413 20.282 14.4882C20.5983 13.5499 20.7697 12.5449 20.7697 11.4999C20.7697 6.33604 16.5836 2.1499 11.4197 2.1499C6.25589 2.1499 2.06975 6.33604 2.06975 11.4999Z" stroke="#464950" stroke-width="1.35" stroke-linecap="round" stroke-linejoin="round"/>
<path d="M9.5 9.00224C9.6762 8.50136 10.024 8.079 10.4817 7.80998C10.9395 7.54095 11.4777 7.4426 12.001 7.53237C12.5243 7.62213 12.999 7.89421 13.3409 8.30041C13.6829 8.70661 13.87 9.22072 13.8692 9.75168C13.8692 11.2506 11.6209 12 11.6209 12M11.6499 15H11.6599" stroke="#464950" stroke-width="1.35" stroke-linecap="round" stroke-linejoin="round"/>
</svg>
