<svg width="32" height="32" viewBox="0 0 32 32" fill="none" xmlns="http://www.w3.org/2000/svg">
<rect width="32" height="32" rx="16" fill="#F3F5F7"/>
<path d="M15.25 10.0576H12.85C11.5899 10.0576 10.9598 10.0576 10.4785 10.3029C10.0552 10.5186 9.71095 10.8628 9.49524 11.2861C9.25 11.7674 9.25 12.3975 9.25 13.6576V17.5576C9.25 18.2551 9.25 18.6038 9.32667 18.89C9.53472 19.6664 10.1412 20.2729 10.9177 20.481C11.2038 20.5576 11.5525 20.5576 12.25 20.5576V22.3092C12.25 22.7089 12.25 22.9087 12.3319 23.0113C12.4032 23.1006 12.5112 23.1525 12.6254 23.1524C12.7567 23.1522 12.9128 23.0274 13.2248 22.7778L15.0139 21.3465C15.3794 21.0541 15.5621 20.9079 15.7656 20.804C15.9461 20.7117 16.1383 20.6443 16.3369 20.6036C16.5608 20.5576 16.7948 20.5576 17.2628 20.5576H18.4C19.6601 20.5576 20.2902 20.5576 20.7715 20.3124C21.1948 20.0967 21.539 19.7525 21.7548 19.3291C22 18.8478 22 18.2177 22 16.9576V16.8076" stroke="#B4B9C2" stroke-width="1.35" stroke-linecap="round" stroke-linejoin="round"/>
<path d="M22.091 9.96638C22.9697 10.8451 22.9697 12.2697 22.091 13.1484C21.2123 14.027 19.7877 14.027 18.909 13.1484C18.0303 12.2697 18.0303 10.8451 18.909 9.96638C19.7877 9.0877 21.2123 9.0877 22.091 9.96638Z" fill="#16D96A" stroke="#16D96A" stroke-linecap="round" stroke-linejoin="round"/>
</svg>
