<svg width="32" height="32" viewBox="0 0 32 32" fill="none" xmlns="http://www.w3.org/2000/svg">
<rect width="32" height="32" rx="16" fill="#F3F5F7"/>
<path d="M9.25 13.4638C9.25 12.2724 9.25 11.6767 9.48161 11.2216C9.68534 10.8213 10.0104 10.4959 10.4103 10.2919C10.8648 10.0601 11.4599 10.0601 12.65 10.0601H18.6C19.7901 10.0601 20.3852 10.0601 20.8397 10.2919C21.2396 10.4959 21.5647 10.8213 21.7684 11.2216C22 11.6767 22 12.2724 22 13.4638V17.293C22 18.4844 22 19.0801 21.7684 19.5352C21.5647 19.9355 21.2396 20.2609 20.8397 20.4649C20.3852 20.6967 19.7901 20.6968 18.6 20.6968H16.8177C16.3756 20.6968 16.1546 20.6968 15.9432 20.7402C15.7556 20.7787 15.5741 20.8425 15.4036 20.9297C15.2115 21.028 15.0389 21.1662 14.6937 21.4426L13.004 22.7959C12.7093 23.0319 12.5619 23.1499 12.4379 23.1501C12.33 23.1502 12.228 23.1011 12.1607 23.0167C12.0833 22.9197 12.0833 22.7307 12.0833 22.3529V20.6968C11.4246 20.6968 11.0952 20.6968 10.825 20.6243C10.0917 20.4276 9.5189 19.8541 9.32241 19.12C9.25 18.8495 9.25 18.5198 9.25 17.8603V13.4638Z" stroke="#B4B9C2" stroke-width="1.35" stroke-linecap="round" stroke-linejoin="round"/>
</svg>
