<svg width="30" height="30" viewBox="0 0 30 30" fill="none" xmlns="http://www.w3.org/2000/svg">
<path d="M14.727 18.0001C11.3132 18.0001 8.27724 19.6699 6.34441 22.2611C5.92841 22.8189 5.72041 23.0977 5.72721 23.4746C5.73247 23.7657 5.91296 24.1331 6.13912 24.3128C6.43184 24.5455 6.83749 24.5455 7.6488 24.5455H21.8053C22.6166 24.5455 23.0223 24.5455 23.315 24.3128C23.5411 24.1331 23.7216 23.7657 23.7269 23.4746C23.7337 23.0977 23.5257 22.8189 23.1097 22.2611C21.1769 19.6699 18.1409 18.0001 14.727 18.0001Z" fill="#C1F7D9"/>
<path d="M14.7271 14.7274C17.4035 14.7274 19.5731 12.5295 19.5731 9.81827C19.5731 7.10705 17.4035 4.90918 14.7271 4.90918C12.0506 4.90918 9.88097 7.10705 9.88097 9.81827C9.88097 12.5295 12.0506 14.7274 14.7271 14.7274Z" fill="#C1F7D9"/>
<path d="M14.727 18.0001C11.3132 18.0001 8.27724 19.6699 6.34441 22.2611C5.92841 22.8189 5.72041 23.0977 5.72721 23.4746C5.73247 23.7657 5.91296 24.1331 6.13912 24.3128C6.43184 24.5455 6.83749 24.5455 7.6488 24.5455H21.8053C22.6166 24.5455 23.0223 24.5455 23.315 24.3128C23.5411 24.1331 23.7216 23.7657 23.7269 23.4746C23.7337 23.0977 23.5257 22.8189 23.1097 22.2611C21.1769 19.6699 18.1409 18.0001 14.727 18.0001Z" stroke="#C1F7D9" stroke-width="1.22727" stroke-linecap="round" stroke-linejoin="round"/>
<path d="M14.7271 14.7274C17.4035 14.7274 19.5731 12.5295 19.5731 9.81827C19.5731 7.10705 17.4035 4.90918 14.7271 4.90918C12.0506 4.90918 9.88097 7.10705 9.88097 9.81827C9.88097 12.5295 12.0506 14.7274 14.7271 14.7274Z" stroke="#C1F7D9" stroke-width="1.22727" stroke-linecap="round" stroke-linejoin="round"/>
</svg>
