<svg width="28" height="28" viewBox="0 0 28 28" fill="none" xmlns="http://www.w3.org/2000/svg">
<rect width="28" height="28" rx="4" fill="#B4B9C2"/>
<path d="M14.3573 17C11.1872 17 8.36807 18.5306 6.57327 20.906C6.18698 21.4172 5.99383 21.6728 6.00015 22.0183C6.00503 22.2852 6.17263 22.6219 6.38264 22.7867C6.65446 23 7.03114 23 7.7845 23H20.93C21.6834 23 22.0601 23 22.3319 22.7867C22.5419 22.6219 22.7095 22.2852 22.7144 22.0183C22.7207 21.6728 22.5276 21.4172 22.1413 20.906C20.3465 18.5306 17.5273 17 14.3573 17Z" fill="#959CA6"/>
<path d="M14.3573 14C16.8426 14 18.8573 11.9853 18.8573 9.5C18.8573 7.01472 16.8426 5 14.3573 5C11.872 5 9.85727 7.01472 9.85727 9.5C9.85727 11.9853 11.872 14 14.3573 14Z" fill="#959CA6"/>
</svg>
